<svg width="797" height="297" viewBox="0 0 797 297" fill="none" xmlns="http://www.w3.org/2000/svg">
<g filter="url(#filter0_b_481_45)">
<path d="M21.9713 40.2855C11.0375 4.3135 37.954 -32 75.551 -32H722.868C760.04 -32 786.896 3.55215 776.734 39.3087L715.064 256.309C708.221 280.387 686.229 297 661.197 297H141.508C116.853 297 95.0988 280.875 87.9288 257.286L21.9713 40.2855Z" fill="#FFF5F5" fill-opacity="0.49"/>
<path d="M24.8416 39.4131C14.4936 5.36813 39.9681 -29 75.551 -29H722.868C758.049 -29 783.466 4.64757 773.849 38.4886L712.179 255.489C705.702 278.277 684.888 294 661.197 294H141.508C118.174 294 97.585 278.739 90.7991 256.413L24.8416 39.4131Z" stroke="white" stroke-width="6"/>
</g>
<path d="M387 283L398 270L409.5 283" stroke="white" stroke-width="6" stroke-linecap="round"/>
<path d="M48.0195 43.4513C42.3615 24.5293 56.5331 5.5 76.283 5.5H725.838C745.254 5.5 759.376 23.9343 754.32 42.6814L701.461 238.681C697.989 251.555 686.313 260.5 672.979 260.5H134.89C121.853 260.5 110.362 251.942 106.627 239.451L48.0195 43.4513Z" fill="black" fill-opacity="0.48" stroke="black"/>
<defs>
<filter id="filter0_b_481_45" x="-39.4863" y="-91" width="877.387" height="447" filterUnits="userSpaceOnUse" color-interpolation-filters="sRGB">
<feFlood flood-opacity="0" result="BackgroundImageFix"/>
<feGaussianBlur in="BackgroundImageFix" stdDeviation="29.5"/>
<feComposite in2="SourceAlpha" operator="in" result="effect1_backgroundBlur_481_45"/>
<feBlend mode="normal" in="SourceGraphic" in2="effect1_backgroundBlur_481_45" result="shape"/>
</filter>
</defs>
</svg>
